<svg id="Capa_1" data-name="Capa 1" xmlns="http://www.w3.org/2000/svg" xmlns:xlink="http://www.w3.org/1999/xlink"
     viewBox="0 0 182.4 74.38">
    <defs>
        <style>.cls-1{fill:none;}.cls-2{clip-path:url(#clip-path);}.cls-3{fill:#000;}</style>
        <clipPath id="clip-path">
            <circle class="cls-1" cx="19.8" cy="21.54" r="18.72"/>
        </clipPath>
    </defs>
    <g id="Capa_2" data-name="Capa 2">
        <g id="Capa_1-2" data-name="Capa 1-2">
            <g class="cls-2">
                <rect class="cls-3" x="27.17" y="8.78" width="3.73" height="15.16"/>
                <rect class="cls-3" x="23.36" y="19.55" width="11.85" height="44.32"/>
                <rect class="cls-3" x="27.5" y="59.23" width="3.73" height="15.16"/>
            </g>
            <g class="cls-2">
                <rect class="cls-3" x="14.08" y="16.32" width="6.96" height="12.09"/>
            </g>
            <g class="cls-2">
                <rect class="cls-3" x="14.08" y="30.73" width="6.96" height="13.09"/>
            </g>
            <g class="cls-2">
                <rect class="cls-3" x="4.56" y="16.32" width="6.96" height="12.09"/>
            </g>
            <g class="cls-2">
                <rect class="cls-3" x="14.08" y="0.83" width="6.96" height="13.09"/>
            </g>
            <g class="cls-2">
                <rect class="cls-3" x="4.56" y="0.83" width="6.96" height="13.09"/>
            </g>
            <g class="cls-2">
                <rect class="cls-3" x="4.47" y="30.73" width="6.96" height="13.09"/>
            </g>
            <path class="cls-3"
                  d="M19.22,40.92A19.22,19.22,0,1,1,38.43,21.7h0A19.22,19.22,0,0,1,19.22,40.92Zm0-37.44A18.23,18.23,0,1,0,37.44,21.7,18.23,18.23,0,0,0,19.22,3.48Z"/>
            <rect class="cls-3" x="94.91" y="52.84" width="2.85" height="17.11"/>
            <path class="cls-3"
                  d="M89.21,55c-.71-.71-1.24-1.43-1.78-1.6a6.18,6.18,0,0,0-3.21-.9,6.69,6.69,0,0,0-5.52,2.68,11,11,0,0,0-2,6.41A9.32,9.32,0,0,0,78.88,68a6.32,6.32,0,0,0,5,2.31,6.47,6.47,0,0,0,3.2-.71,4.84,4.84,0,0,0,2.32-2.32v2.32h2.5V46.07H89V55ZM88,66.2A4.28,4.28,0,0,1,84.76,68,3.89,3.89,0,0,1,81,66.2a9.4,9.4,0,0,1-1.25-4.63,6.53,6.53,0,0,1,1.42-4.81,4.75,4.75,0,0,1,3.57-1.6A4.06,4.06,0,0,1,88,56.76a7.44,7.44,0,0,1,1.24,4.81A7.17,7.17,0,0,1,88,66.2Z"/>
            <rect class="cls-3" x="94.91" y="48.57" width="2.85" height="3.21"/>
            <path class="cls-3"
                  d="M113.27,46.07a4.71,4.71,0,0,0-3.92,1.43,5,5,0,0,0-.54,2.67v2.67h-4.27c0-1.78.17-3,.17-3.38a1.79,1.79,0,0,1,1.61-.72h1.07V46.07h-1.25a4.71,4.71,0,0,0-3.92,1.43,4.94,4.94,0,0,0-.53,2.67v2.67H99.37v2.32h2.32V70h2.85V55.16h4.27V70h2.85V55.16h2.85V52.84h-2.85c0-1.78.18-3,.18-3.38a1.77,1.77,0,0,1,1.61-.72h1.06V46.07Z"/>
            <path class="cls-3"
                  d="M130.19,58.54a7.54,7.54,0,0,0-1.07-3,5.86,5.86,0,0,0-2.49-2.13,7.93,7.93,0,0,0-9.44,1.6,9.13,9.13,0,0,0-2.14,6.77,9.45,9.45,0,0,0,2.14,6.59,6.77,6.77,0,0,0,5.34,2.32c.89,0,1.61-.18,2.32-.18a7.19,7.19,0,0,0,3.21-1.78,5.52,5.52,0,0,0,1.42-2,6,6,0,0,0,.71-2.14h-2.85a4.16,4.16,0,0,1-1.07,2A4.36,4.36,0,0,1,122.71,68a4,4,0,0,1-3.56-1.61,7.38,7.38,0,0,1-1.25-4.1h12.47A19.5,19.5,0,0,0,130.19,58.54ZM117.9,60a5,5,0,0,1,1.42-3.57A4.49,4.49,0,0,1,122.53,55a4.09,4.09,0,0,1,3.92,2.14,6.78,6.78,0,0,1,.71,3Z"/>
            <path class="cls-3"
                  d="M140.17,52.48a4.2,4.2,0,0,0-3,1.25,6.61,6.61,0,0,0-1.6,2.14v-3h-2.67V70h2.85v-9.8a4.57,4.57,0,0,1,4.49-4.64h1.21v-3Z"/>
            <path class="cls-3"
                  d="M156.56,58.54a7.68,7.68,0,0,0-1.06-3,5.94,5.94,0,0,0-2.5-2.13,7.93,7.93,0,0,0-9.44,1.6,9.13,9.13,0,0,0-2.14,6.77,9.45,9.45,0,0,0,2.14,6.59,6.77,6.77,0,0,0,5.34,2.32c.89,0,1.61-.18,2.32-.18a7.14,7.14,0,0,0,3.21-1.78,5.52,5.52,0,0,0,1.42-2,6,6,0,0,0,.71-2.14h-2.85a4.16,4.16,0,0,1-1.07,2A4.35,4.35,0,0,1,149.08,68a4,4,0,0,1-3.56-1.61,7.46,7.46,0,0,1-1.25-4.1h12.47A10.7,10.7,0,0,0,156.56,58.54ZM144.45,60a5,5,0,0,1,1.42-3.57A4.49,4.49,0,0,1,149.08,55,4.1,4.1,0,0,1,153,57.12a6.78,6.78,0,0,1,.71,3Z"/>
            <path class="cls-3"
                  d="M167.43,52.48a6,6,0,0,0-3,.72,6.85,6.85,0,0,0-2.49,2.14v-2.5h-2.67V70h2.85V61a9.52,9.52,0,0,1,.18-2.5,8.23,8.23,0,0,1,.89-1.78,3.56,3.56,0,0,1,2.13-1.42,4.39,4.39,0,0,1,1.61-.18,2.85,2.85,0,0,1,2.85,1.6,5.12,5.12,0,0,1,.53,2.5V70.12h2.85v-11a7.56,7.56,0,0,0-.71-3.92A4.77,4.77,0,0,0,167.43,52.48Z"/>
            <path class="cls-3"
                  d="M182.22,55.16V52.84h-2.67V48H176.7v4.81h-2.32v2.32h2.32V66.38a4.31,4.31,0,0,0,.71,2.68,3.08,3.08,0,0,0,2.67,1.06h1.25c.36,0,.71-.17,1.07-.17V67.63h-.89c-.54,0-.89,0-1.07-.18a1.62,1.62,0,0,1-.53-1.25V55l2.31.18Z"/>
            <path class="cls-3"
                  d="M52.27,3.31H45.81v7H42.33v4.64h3.48V30.23a4.76,4.76,0,0,0,1.07,3.48c1.16,1.16,3.23,1.74,6.3,1.58l3.06-.09V30.32H54.92a4.22,4.22,0,0,1-2.4-.42A3,3,0,0,1,52.1,28V14.83h4.06V10.19H52.1Z"/>
            <path class="cls-3"
                  d="M72.15,9.44a7.05,7.05,0,0,0-4.72,1.49,12.84,12.84,0,0,0-2.65,3.4V10H58.56V35h6.55V23a9.7,9.7,0,0,1,.74-4.39c.91-1.74,2.65-2.57,5.3-2.57h.75c.33,0,.66.08,1.08.08V9.44Z"/>
            <path class="cls-3"
                  d="M95.76,33.3a3.78,3.78,0,0,1-.42-1.74c0-1.16-.08-2.07-.08-2.9V17.23c0-3-1.08-5.05-3.15-6.13a15.74,15.74,0,0,0-7.29-1.66c-4.22,0-7.2,1.08-8.94,3.32a9.09,9.09,0,0,0-1.83,5.38h6.3a5.43,5.43,0,0,1,.91-2.32,4.22,4.22,0,0,1,3.31-1.16,6.56,6.56,0,0,1,3.15.58A2.2,2.2,0,0,1,88.8,17.4a1.92,1.92,0,0,1-1.41,1.82,10.3,10.3,0,0,1-2.57.58l-2.23.25a15.44,15.44,0,0,0-5.72,1.57,7,7,0,0,0-3.56,6.63,6.84,6.84,0,0,0,2.23,5.46,8.23,8.23,0,0,0,5.64,1.91A9.3,9.3,0,0,0,86,34.38a13.06,13.06,0,0,0,3.15-2.49c.08.58.08,1.08.16,1.49a13.46,13.46,0,0,0,.42,1.41h7.12v-1A1.47,1.47,0,0,1,95.76,33.3Zm-7-8c-.09,2.16-.66,3.65-1.91,4.48a6.65,6.65,0,0,1-4,1.24,3.65,3.65,0,0,1-2.32-.75,2.76,2.76,0,0,1-.91-2.4,2.83,2.83,0,0,1,1.57-2.73,9.8,9.8,0,0,1,3-.91l1.49-.25a13,13,0,0,0,1.74-.42,4.11,4.11,0,0,0,1.24-.66Z"/>
            <path class="cls-3"
                  d="M168.82,35a8.13,8.13,0,0,0,5.05-1.49,6.7,6.7,0,0,0,2-2.4v1.57a12.06,12.06,0,0,1-.75,5.05c-.83,1.58-2.32,2.32-4.72,2.32a5.66,5.66,0,0,1-3.56-.91,2.89,2.89,0,0,1-.91-1.66h-7.13a7.2,7.2,0,0,0,3.32,5.64,13.92,13.92,0,0,0,7.78,1.9q8,0,10.69-4.22c1.07-1.66,1.65-4.06,1.65-7.29V9.94h-6.37V13.5a8.06,8.06,0,0,0-3.81-3.64,7.8,7.8,0,0,0-3.23-.58A8.9,8.9,0,0,0,161,13.09a15.61,15.61,0,0,0-2.73,9.36c0,3.81,1,6.87,2.89,9.11A9,9,0,0,0,168.82,35Zm-3.15-16.73a4.71,4.71,0,0,1,4.72-3.23,5.05,5.05,0,0,1,4,1.82,8.36,8.36,0,0,1,1.49,5.38c0,2.49-.5,4.31-1.58,5.47a5,5,0,0,1-3.81,1.74,4.69,4.69,0,0,1-4.72-3.15,9.63,9.63,0,0,1-.75-3.89A12.39,12.39,0,0,1,165.67,18.31Z"/>
            <path class="cls-3"
                  d="M154.24,11.27c1.65,1.4,2.48,3.64,2.48,6.79V35.12h-6.79V19.71a7.46,7.46,0,0,0-.5-3.06,3.66,3.66,0,0,0-3.64-1.91,4.61,4.61,0,0,0-4.56,2.82,10.34,10.34,0,0,0-.66,3.89V35.12h-6.63V9.86h6.38V13.5a10.79,10.79,0,0,1,2.4-2.81,8.42,8.42,0,0,1,5.14-1.5A10.57,10.57,0,0,1,154.24,11.27Z"/>
            <rect class="cls-3" x="125.99" y="3.73" width="2.15" height="8.78"/>
            <path class="cls-3"
                  d="M115.22,13.25a8.16,8.16,0,0,0-2.81-2.73,7.91,7.91,0,0,0-4.06-1,9.65,9.65,0,0,0-7.87,3.64c-2,2.4-3,5.8-3,10a13.44,13.44,0,0,0,3,9,9.42,9.42,0,0,0,7.37,3.56,8.71,8.71,0,0,0,4.39-1,9.19,9.19,0,0,0,3.15-3.23V35M114,28.25a4.76,4.76,0,0,1-4.23,2.07,4.53,4.53,0,0,1-4.14-2.07,10,10,0,0,1-1.32-5.55,10,10,0,0,1,1.32-5.39,4.71,4.71,0,0,1,4.23-2.15,5.31,5.31,0,0,1,3.31,1.16c1.57,1.32,2.32,3.48,2.32,6.54A10.35,10.35,0,0,1,114,28.25Z"/>
            <rect class="cls-3" x="123.75" y="9.94" width="6.88" height="25.35"/>
            <rect class="cls-3" x="126.16" y="32.89" width="2.15" height="8.78"/>
            <path class="cls-3" d="M115.8,25.51c0-.08.08-.16.08-.25h-.08Z"/>
            <rect class="cls-3" x="115.22" width="0.99" height="35.2"/>
            <rect class="cls-3" x="119.86" y="0.08" width="1.91" height="4.14"/>
            <rect class="cls-3" x="122.68" y="0.17" width="1.91" height="4.14"/>
            <rect class="cls-3" x="119.86" y="5.22" width="1.91" height="4.14"/>
            <rect class="cls-3" x="119.86" y="10.35" width="1.91" height="4.14"/>
            <rect class="cls-3" x="119.86" y="15.49" width="1.91" height="4.14"/>
            <rect class="cls-3" x="119.78" y="20.63" width="1.91" height="4.14"/>
            <rect class="cls-3" x="119.78" y="25.76" width="1.91" height="4.14"/>
            <rect class="cls-3" x="119.78" y="30.81" width="1.91" height="4.39"/>
            <rect class="cls-3" x="117.04" y="0.08" width="1.91" height="4.14"/>
            <rect class="cls-3" x="116.96" y="5.22" width="1.91" height="4.14"/>
            <rect class="cls-3" x="116.96" y="10.35" width="1.91" height="4.14"/>
            <rect class="cls-3" x="116.96" y="15.49" width="1.91" height="4.14"/>
            <rect class="cls-3" x="116.96" y="20.63" width="1.91" height="4.14"/>
            <rect class="cls-3" x="116.96" y="25.76" width="1.91" height="4.14"/>
            <rect class="cls-3" x="116.88" y="30.81" width="1.91" height="4.39"/>
        </g>
    </g>
</svg>
