<svg width="944" height="367" viewBox="0 0 944 367" fill="none" xmlns="http://www.w3.org/2000/svg">
<mask id="mask0_406_155" style="mask-type:luminance" maskUnits="userSpaceOnUse" x="5" y="14" width="195" height="195">
<path d="M102.517 208.493C156.02 208.493 199.393 165.089 199.393 111.548C199.393 58.0075 156.02 14.604 102.517 14.604C49.0138 14.604 5.64087 58.0075 5.64087 111.548C5.64087 165.089 49.0138 208.493 102.517 208.493Z" fill="white"/>
</mask>
<g mask="url(#mask0_406_155)">
<path d="M159.96 45.4683H140.657V123.977H159.96V45.4683Z" fill="#FF5A00"/>
<path d="M182.264 101.243H120.94V330.76H182.264V101.243Z" fill="#FF5A00"/>
</g>
<mask id="mask1_406_155" style="mask-type:luminance" maskUnits="userSpaceOnUse" x="5" y="14" width="195" height="195">
<path d="M102.517 208.493C156.02 208.493 199.393 165.089 199.393 111.548C199.393 58.0075 156.02 14.604 102.517 14.604C49.0138 14.604 5.64087 58.0075 5.64087 111.548C5.64087 165.089 49.0138 208.493 102.517 208.493Z" fill="white"/>
</mask>
<g mask="url(#mask1_406_155)">
<path d="M108.934 84.5161H72.916V147.126H108.934V84.5161Z" fill="#4B4BBE"/>
</g>
<mask id="mask2_406_155" style="mask-type:luminance" maskUnits="userSpaceOnUse" x="5" y="14" width="195" height="195">
<path d="M102.517 208.493C156.02 208.493 199.393 165.089 199.393 111.548C199.393 58.0075 156.02 14.604 102.517 14.604C49.0138 14.604 5.64087 58.0075 5.64087 111.548C5.64087 165.089 49.0138 208.493 102.517 208.493Z" fill="white"/>
</mask>
<g mask="url(#mask2_406_155)">
<path d="M108.934 159.141H72.916V226.929H108.934V159.141Z" fill="#4B4BBE"/>
</g>
<mask id="mask3_406_155" style="mask-type:luminance" maskUnits="userSpaceOnUse" x="5" y="14" width="195" height="195">
<path d="M102.517 208.493C156.02 208.493 199.393 165.089 199.393 111.548C199.393 58.0075 156.02 14.604 102.517 14.604C49.0138 14.604 5.64087 58.0075 5.64087 111.548C5.64087 165.089 49.0138 208.493 102.517 208.493Z" fill="white"/>
</mask>
<g mask="url(#mask3_406_155)">
<path d="M59.6679 84.5161H23.6498V147.126H59.6679V84.5161Z" fill="#4B4BBE"/>
</g>
<mask id="mask4_406_155" style="mask-type:luminance" maskUnits="userSpaceOnUse" x="5" y="14" width="195" height="195">
<path d="M102.517 208.493C156.02 208.493 199.393 165.089 199.393 111.548C199.393 58.0075 156.02 14.604 102.517 14.604C49.0138 14.604 5.64087 58.0075 5.64087 111.548C5.64087 165.089 49.0138 208.493 102.517 208.493Z" fill="white"/>
</mask>
<g mask="url(#mask4_406_155)">
<path d="M108.934 4.29834H72.916V72.0869H108.934V4.29834Z" fill="#4B4BBE"/>
</g>
<mask id="mask5_406_155" style="mask-type:luminance" maskUnits="userSpaceOnUse" x="5" y="14" width="195" height="195">
<path d="M102.517 208.493C156.02 208.493 199.393 165.089 199.393 111.548C199.393 58.0075 156.02 14.604 102.517 14.604C49.0138 14.604 5.64087 58.0075 5.64087 111.548C5.64087 165.089 49.0138 208.493 102.517 208.493Z" fill="white"/>
</mask>
<g mask="url(#mask5_406_155)">
<path d="M59.6679 4.29834H23.6498V72.0869H59.6679V4.29834Z" fill="#4B4BBE"/>
</g>
<mask id="mask6_406_155" style="mask-type:luminance" maskUnits="userSpaceOnUse" x="5" y="14" width="195" height="195">
<path d="M102.517 208.493C156.02 208.493 199.393 165.089 199.393 111.548C199.393 58.0075 156.02 14.604 102.517 14.604C49.0138 14.604 5.64087 58.0075 5.64087 111.548C5.64087 165.089 49.0138 208.493 102.517 208.493Z" fill="white"/>
</mask>
<g mask="url(#mask6_406_155)">
<path d="M59.2022 159.141H23.1841V226.929H59.2022V159.141Z" fill="#4B4BBE"/>
</g>
<path d="M99.5155 211.911C79.8413 211.921 60.6059 206.092 44.2424 195.161C27.8788 184.231 15.1222 168.689 7.58613 150.503C0.0500215 132.316 -1.92708 112.302 1.90491 92.9907C5.73689 73.6796 15.2058 55.9396 29.114 42.0144C43.0222 28.0891 60.7448 18.6043 80.0403 14.7596C99.3358 10.9149 119.337 12.883 137.515 20.4149C155.693 27.9468 171.23 40.7043 182.161 57.0736C193.093 73.443 198.928 92.6888 198.928 112.377C198.928 138.766 188.455 164.075 169.814 182.74C151.172 201.404 125.886 211.897 99.5155 211.911ZM99.5155 18.0219C80.8523 18.0117 62.6054 23.5412 47.0833 33.9108C31.5612 44.2804 19.4613 59.0242 12.3145 76.2769C5.16764 93.5296 3.29503 112.516 6.93353 130.834C10.572 149.152 19.5581 165.978 32.755 179.184C45.9519 192.391 62.7665 201.383 81.0716 205.024C99.3767 208.665 118.35 206.791 135.59 199.639C152.831 192.487 167.564 180.379 177.927 164.846C188.289 149.313 193.814 131.053 193.804 112.377C193.791 87.3567 183.852 63.3651 166.173 45.673C148.493 27.981 124.518 18.0357 99.5155 18.0219Z" fill="#4B4BBE"/>
<path d="M505.961 273.64H491.212V362.247H505.961V273.64Z" fill="#4B4BBE"/>
<path d="M461.715 284.826C458.04 281.149 455.298 277.42 452.503 276.54C447.497 273.493 441.751 271.881 435.891 271.879C430.369 271.744 424.894 272.934 419.924 275.348C414.955 277.762 410.635 281.332 407.325 285.758C400.502 295.473 396.884 307.079 396.975 318.953C396.444 331.042 400.471 342.89 408.257 352.148C411.388 355.967 415.342 359.027 419.824 361.099C424.305 363.171 429.196 364.2 434.132 364.111C439.876 364.328 445.579 363.062 450.692 360.434C455.97 357.95 460.216 353.701 462.698 348.42V360.434H475.635V238.581H460.628V284.826H461.715ZM455.453 342.827C453.535 345.539 451.032 347.785 448.13 349.398C445.228 351.012 442 351.952 438.686 352.148C434.893 352.602 431.049 351.967 427.604 350.316C424.158 348.665 421.253 346.068 419.228 342.827C415.036 335.529 412.807 327.267 412.759 318.85C412.283 314.418 412.687 309.936 413.948 305.661C415.209 301.386 417.303 297.403 420.108 293.94C422.422 291.326 425.267 289.234 428.453 287.806C431.638 286.377 435.092 285.644 438.582 285.654C441.844 285.63 445.067 286.367 447.995 287.805C450.923 289.243 453.477 291.344 455.453 293.94C460.38 301.263 462.646 310.056 461.87 318.85C462.543 327.342 460.277 335.808 455.453 342.827Z" fill="#4B4BBE"/>
<path d="M505.961 251.527H491.212V268.15H505.961V251.527Z" fill="#4B4BBE"/>
<path d="M586.225 238.581C582.503 238.173 578.736 238.628 575.218 239.913C571.7 241.197 568.525 243.275 565.939 245.986C563.747 250.247 562.78 255.034 563.145 259.813V273.64H541.048C541.048 264.422 541.927 258.104 541.927 256.136C542.876 254.848 544.142 253.827 545.603 253.174C547.063 252.52 548.667 252.256 550.259 252.408H555.796V238.581H549.328C545.605 238.173 541.839 238.628 538.32 239.913C534.802 241.197 531.627 243.275 529.042 245.986C526.851 250.247 525.901 255.038 526.299 259.813V273.64H514.293V285.655H526.299V362.506H541.048V285.655H563.145V362.506H577.894V285.655H592.643V273.64H577.894C577.894 264.422 578.825 258.104 578.825 256.136C579.767 254.84 581.032 253.814 582.494 253.159C583.956 252.505 585.564 252.246 587.157 252.408H592.643V238.581H586.225Z" fill="#4B4BBE"/>
<path d="M673.787 303.159C673.068 297.644 671.18 292.348 668.249 287.623C665.09 282.794 660.62 278.968 655.364 276.592C647.431 272.457 638.366 271.029 629.547 272.524C620.728 274.02 612.64 278.358 606.512 284.878C602.419 289.685 599.331 295.265 597.429 301.286C595.527 307.308 594.85 313.65 595.437 319.937C594.678 332.306 598.635 344.502 606.512 354.065C609.935 357.998 614.192 361.118 618.972 363.196C623.753 365.275 628.937 366.26 634.146 366.079C638.752 366.079 642.478 365.147 646.152 365.147C652.393 363.564 658.117 360.388 662.764 355.929C665.959 353.072 668.47 349.532 670.112 345.572C672.026 342.143 673.273 338.383 673.787 334.489H659.038C658.186 338.388 656.269 341.974 653.501 344.847C651.188 347.386 648.326 349.364 645.133 350.63C641.94 351.895 638.501 352.415 635.078 352.149C631.551 352.451 628.005 351.844 624.78 350.384C621.554 348.924 618.757 346.661 616.655 343.811C612.447 337.53 610.195 330.14 610.186 322.578H674.718C675.033 316.09 674.721 309.587 673.787 303.159ZM610.186 310.719C610.132 307.305 610.754 303.914 612.015 300.741C613.276 297.568 615.152 294.676 617.534 292.232C619.663 289.943 622.232 288.107 625.086 286.835C627.94 285.563 631.022 284.879 634.146 284.826C638.237 284.507 642.333 285.384 645.934 287.352C649.536 289.319 652.488 292.292 654.432 295.908C656.833 300.736 658.09 306.052 658.106 311.444L610.186 310.719Z" fill="#4B4BBE"/>
<path d="M725.433 271.776C722.546 271.769 719.685 272.338 717.02 273.449C714.354 274.56 711.937 276.192 709.908 278.249C706.423 281.341 703.606 285.112 701.628 289.332V273.796H687.811V362.506H702.56V311.755C702.463 305.487 704.855 299.436 709.211 294.932C713.568 290.427 719.532 287.835 725.796 287.726H732.057V272.19L725.433 271.776Z" fill="#4B4BBE"/>
<path d="M810.277 303.159C809.553 297.653 807.684 292.361 804.792 287.623C801.601 282.802 797.117 278.979 791.854 276.592C783.922 272.457 774.856 271.029 766.038 272.524C757.219 274.02 749.13 278.358 743.002 284.878C738.91 289.685 735.822 295.265 733.92 301.286C732.018 307.308 731.34 313.65 731.928 319.937C731.168 332.306 735.126 344.502 743.002 354.065C746.425 357.998 750.682 361.118 755.463 363.196C760.244 365.275 765.428 366.26 770.637 366.079C775.243 366.079 778.969 365.147 782.643 365.147C788.888 363.575 794.615 360.398 799.255 355.929C802.449 353.072 804.961 349.532 806.603 345.572C808.517 342.143 809.764 338.383 810.277 334.489H795.529C794.677 338.388 792.76 341.974 789.991 344.847C787.681 347.389 784.819 349.37 781.626 350.635C778.433 351.901 774.992 352.418 771.568 352.149C768.041 352.451 764.496 351.844 761.27 350.384C758.045 348.924 755.248 346.661 753.145 343.811C748.96 337.519 746.711 330.137 746.677 322.578H811.209C812.045 316.101 811.729 309.526 810.277 303.159ZM747.608 310.719C747.554 307.305 748.176 303.914 749.437 300.741C750.698 297.568 752.574 294.676 754.957 292.232C757.086 289.943 759.654 288.107 762.508 286.835C765.363 285.563 768.444 284.879 771.568 284.826C775.648 284.504 779.733 285.369 783.332 287.316C786.931 289.264 789.891 292.212 791.854 295.805C794.255 300.632 795.512 305.948 795.529 311.341L747.608 310.719Z" fill="#4B4BBE"/>
<path d="M866.53 271.776C861.119 271.643 855.767 272.928 851.005 275.504C845.875 278.098 841.453 281.902 838.119 286.587V273.64H824.302V362.506H839.051V315.898C838.79 311.56 839.103 307.207 839.982 302.951C841.139 299.703 842.686 296.608 844.588 293.733C847.224 289.999 851.153 287.378 855.611 286.379C858.306 285.554 861.132 285.238 863.943 285.447C866.953 285.148 869.983 285.782 872.622 287.264C875.26 288.746 877.379 291.005 878.691 293.733C880.684 297.747 881.628 302.202 881.434 306.68V363.127H896.183V306.162C896.794 299.188 895.525 292.178 892.509 285.862C890.276 281.024 886.54 277.038 881.858 274.499C877.176 271.961 871.799 271.005 866.53 271.776Z" fill="#4B4BBE"/>
<path d="M943.069 285.654V273.639H929.251V248.575H914.503V273.484H902.497V285.498H914.503V343.758C914.166 348.663 915.458 353.542 918.177 357.637C919.861 359.607 921.999 361.136 924.407 362.093C926.814 363.049 929.419 363.404 931.994 363.126H938.463C940.326 363.126 942.137 362.246 944 362.246V350.232H939.394C936.6 350.232 934.789 350.232 933.857 349.299C932.959 348.483 932.249 347.482 931.775 346.364C931.302 345.247 931.076 344.039 931.114 342.826V284.825L943.069 285.757V285.654Z" fill="#4B4BBE"/>
<path d="M270.55 17.1416H237.119V53.3922H219.11V77.4211H237.119V156.551C236.506 163.055 238.497 169.537 242.657 174.573C248.66 180.58 259.372 183.583 275.259 182.755L291.095 182.289V157.017H284.264C280 157.53 275.68 156.773 271.844 154.842C270.047 151.895 269.282 148.433 269.67 145.002V76.7997H290.681V52.7707H269.67L270.55 17.1416Z" fill="#4B4BBE"/>
<path d="M373.429 48.8866C364.623 48.4199 355.945 51.1611 349.003 56.6027C343.473 61.6566 338.836 67.6096 335.289 74.2102V51.7866H303.101V181.253H336.997V119.109C336.495 111.336 337.806 103.553 340.826 96.3748C345.536 87.3639 354.54 83.0657 368.254 83.0657H372.135C373.843 83.0657 375.551 83.4799 377.724 83.4799V48.8866H373.429Z" fill="#4B4BBE"/>
<path d="M495.611 172.449C494.176 169.663 493.431 166.572 493.437 163.438C493.437 157.431 493.023 152.718 493.023 148.42V89.228C493.023 73.692 487.434 63.0758 476.722 57.4829C465.019 51.6268 452.079 48.6781 438.996 48.8863C417.158 48.8863 401.736 54.4792 392.732 66.0794C386.681 74.115 383.362 83.8793 383.261 93.9405H415.864C416.482 89.6245 418.094 85.5114 420.573 81.9261C422.831 79.7543 425.529 78.0938 428.485 77.0573C431.44 76.0208 434.584 75.6325 437.703 75.9188C443.301 75.5568 448.902 76.5888 454.004 78.9225C455.924 80.0384 457.476 81.6919 458.469 83.6794C459.462 85.6669 459.853 87.9016 459.593 90.1083C459.558 92.2575 458.828 94.3376 457.513 96.0368C456.197 97.736 454.367 98.9628 452.296 99.5335C448.01 101.1 443.54 102.11 438.996 102.537L427.456 103.832C417.157 104.602 407.104 107.363 397.855 111.962C391.836 115.336 386.904 120.359 383.641 126.441C380.377 132.524 378.917 139.412 379.432 146.297C379.126 151.573 380.003 156.85 382 161.743C383.997 166.636 387.063 171.019 390.972 174.572C399.127 181.399 409.538 184.927 420.159 184.463C428.902 184.63 437.526 182.41 445.103 178.042C451.168 174.61 456.667 170.26 461.404 165.147C461.818 168.151 461.818 170.74 462.232 172.863C462.823 175.335 463.549 177.773 464.406 180.165H501.252V174.986C500.186 174.982 499.134 174.754 498.162 174.317C497.19 173.88 496.321 173.244 495.611 172.449ZM459.386 131.02C458.92 142.206 455.97 149.922 449.502 154.22C443.473 158.536 436.213 160.788 428.802 160.642C424.473 160.762 420.234 159.391 416.796 156.758C415.063 155.223 413.73 153.289 412.909 151.124C412.089 148.959 411.807 146.627 412.086 144.329C411.889 141.432 412.555 138.542 414.002 136.025C415.448 133.507 417.61 131.477 420.211 130.191C425.1 127.797 430.342 126.206 435.736 125.479L443.447 124.184C446.495 123.667 449.503 122.94 452.451 122.009C454.771 121.246 456.941 120.09 458.868 118.591L459.386 131.02Z" fill="#4B4BBE"/>
<path d="M873.723 181.253C883.049 181.653 892.242 178.939 899.857 173.537C904.238 170.268 907.784 166.009 910.207 161.108V169.239C910.793 178.133 909.47 187.051 906.326 195.391C902.031 203.573 894.32 207.405 881.9 207.405C875.406 207.929 868.923 206.27 863.477 202.693C860.987 200.438 859.328 197.41 858.768 194.096H821.87C822.224 199.977 823.966 205.69 826.952 210.766C829.939 215.843 834.085 220.14 839.051 223.304C851.218 230.46 865.218 233.881 879.312 233.143C906.912 233.143 925.353 225.859 934.633 211.289C940.171 202.693 943.172 190.264 943.172 173.537V51.4762H910.207V69.9122C905.931 61.5957 898.988 54.9573 890.49 51.0619C885.195 48.8859 879.497 47.862 873.775 48.0583C865.898 47.5981 858.034 49.171 850.939 52.6259C843.844 56.0809 837.754 61.3022 833.255 67.789C823.495 82.0225 818.544 99.0087 819.127 116.261C819.127 135.992 824.302 151.838 834.083 163.439C838.745 169.409 844.792 174.152 851.7 177.256C858.607 180.36 866.167 181.732 873.723 181.253ZM857.422 94.6144C859.095 89.5306 862.393 85.1388 866.808 82.116C871.222 79.0932 876.507 77.6073 881.848 77.8873C885.785 77.7961 889.692 78.5964 893.276 80.2285C896.861 81.8606 900.03 84.2823 902.548 87.3125C908.233 95.4411 910.955 105.277 910.259 115.174C910.259 128.068 907.671 137.494 902.082 143.501C899.643 146.34 896.616 148.616 893.212 150.172C889.808 151.728 886.108 152.526 882.366 152.512C877.072 152.836 871.819 151.417 867.408 148.471C862.996 145.526 859.671 141.215 857.94 136.199C855.265 129.826 853.943 122.966 854.058 116.054C853.978 108.838 855.116 101.659 857.422 94.8215V94.6144Z" fill="#4B4BBE"/>
<path d="M798.246 58.363C806.785 65.6131 811.08 77.2133 811.08 93.526V181.874H775.942V102.071C776.198 96.6655 775.316 91.2667 773.354 86.2241C771.565 82.8776 768.813 80.1457 765.454 78.3822C762.096 76.6186 758.286 75.9047 754.517 76.3329C749.553 76.0009 744.61 77.2302 740.378 79.8488C736.147 82.4673 732.84 86.3441 730.919 90.9367C728.499 97.37 727.339 104.21 727.503 111.082V181.874H693.193V51.0611H726.21V69.9114C729.483 64.3821 733.684 59.4592 738.63 55.3594C746.415 49.9427 755.754 47.2154 765.229 47.5914C777.112 47.4978 788.702 51.279 798.246 58.363Z" fill="#4B4BBE"/>
<path d="M663.178 19.3164H652.052V64.785H663.178V19.3164Z" fill="#FF5A00"/>
<path d="M596.317 68.6176C592.689 62.7932 587.698 57.9408 581.775 54.4799C575.363 50.899 568.105 49.1103 560.765 49.3012C552.977 49.046 545.238 50.6178 538.166 53.8909C531.094 57.1641 524.886 62.0478 520.037 68.1515C509.687 80.5802 504.512 98.1877 504.512 119.938C503.854 136.846 509.373 153.415 520.037 166.546C524.599 172.292 530.398 176.934 537.002 180.126C543.605 183.318 550.843 184.978 558.177 184.982C566.072 185.278 573.907 183.492 580.895 179.803C587.634 175.67 593.236 169.921 597.197 163.076V181.253M590.003 146.297C587.597 149.831 584.314 152.677 580.476 154.556C576.638 156.435 572.377 157.284 568.113 157.017C563.909 157.323 559.7 156.489 555.929 154.602C552.159 152.716 548.967 149.847 546.688 146.297C541.671 137.584 539.297 127.597 539.857 117.556C539.457 107.793 541.826 98.116 546.688 89.6429C549.026 86.0144 552.284 83.0719 556.13 81.1158C559.976 79.1596 564.272 78.26 568.579 78.5088C574.804 78.5119 580.843 80.6299 585.708 84.516C593.833 91.3518 597.714 102.538 597.714 118.384C597.752 128.22 595.084 137.877 590.003 146.297Z" fill="#4B4BBE"/>
<path d="M676.064 51.4761H640.46V182.755H676.064V51.4761Z" fill="#FF5A00"/>
<path d="M664.058 170.326H652.931V215.795H664.058V170.326Z" fill="#FF5A00"/>
<path d="M599.318 132.108C599.318 131.693 599.732 131.279 599.732 130.813H599.318V132.108Z" fill="#4B4BBE"/>
<path d="M601.44 0H596.317V182.288H601.44V0Z" fill="#4B4BBE"/>
<path d="M630.213 0.414062H620.329V21.8537H630.213V0.414062Z" fill="#4B4BBE"/>
<path d="M644.807 0.880371H634.922V22.32H644.807V0.880371Z" fill="#4B4BBE"/>
<path d="M630.213 27.0322H620.329V48.4718H630.213V27.0322Z" fill="#4B4BBE"/>
<path d="M630.213 53.5991H620.329V75.0387H630.213V53.5991Z" fill="#4B4BBE"/>
<path d="M630.213 80.2173H620.329V101.657H630.213V80.2173Z" fill="#4B4BBE"/>
<path d="M629.799 106.836H619.915V128.276H629.799V106.836Z" fill="#4B4BBE"/>
<path d="M629.799 133.402H619.915V154.841H629.799V133.402Z" fill="#4B4BBE"/>
<path d="M629.799 159.554H619.915V182.288H629.799V159.554Z" fill="#4B4BBE"/>
<path d="M615.619 0.414062H605.735V21.8537H615.619V0.414062Z" fill="#4B4BBE"/>
<path d="M615.206 27.0322H605.321V48.4718H615.206V27.0322Z" fill="#4B4BBE"/>
<path d="M615.206 53.5991H605.321V75.0387H615.206V53.5991Z" fill="#4B4BBE"/>
<path d="M615.206 80.2173H605.321V101.657H615.206V80.2173Z" fill="#4B4BBE"/>
<path d="M615.206 106.836H605.321V128.276H615.206V106.836Z" fill="#4B4BBE"/>
<path d="M615.206 133.402H605.321V154.841H615.206V133.402Z" fill="#4B4BBE"/>
<path d="M614.792 159.554H604.907V182.288H614.792V159.554Z" fill="#4B4BBE"/>
</svg>
