<?xml version="1.0" standalone="no"?>
<!DOCTYPE svg PUBLIC "-//W3C//DTD SVG 20010904//EN"
 "http://www.w3.org/TR/2001/REC-SVG-20010904/DTD/svg10.dtd">
<svg version="1.0" xmlns="http://www.w3.org/2000/svg"
 width="512.000000pt" height="512.000000pt" viewBox="0 0 512.000000 512.000000"
 preserveAspectRatio="xMidYMid meet">
<metadata>
Created by potrace 1.14, written by Peter Selinger 2001-2017
</metadata>
<g transform="translate(0.000000,512.000000) scale(0.100000,-0.100000)"
fill="#000000" stroke="none">
<path d="M2378 5115 c-2 -2 -34 -6 -73 -9 -38 -3 -97 -11 -130 -16 -33 -6 -76
-13 -95 -16 -108 -16 -418 -109 -482 -145 -10 -5 -22 -9 -28 -9 -18 0 -225
-106 -331 -169 -240 -143 -487 -357 -659 -569 -19 -24 -42 -52 -50 -62 -87
-106 -218 -324 -297 -495 -61 -133 -147 -383 -167 -485 -2 -14 -9 -46 -15 -71
-6 -25 -13 -61 -15 -80 -3 -19 -8 -52 -11 -74 -19 -128 -22 -201 -20 -395 2
-118 6 -224 8 -235 3 -11 9 -49 13 -85 4 -36 9 -67 9 -70 1 -3 5 -23 9 -45
141 -723 574 -1343 1202 -1722 262 -158 646 -299 896 -329 29 -4 56 -8 59 -10
32 -18 508 -26 629 -10 36 4 76 9 90 11 211 24 530 121 747 226 702 342 1198
958 1382 1717 17 68 33 149 37 180 3 31 8 59 9 62 18 30 27 485 12 610 -55
470 -211 877 -475 1242 -39 53 -84 112 -100 130 -16 18 -52 59 -80 90 -303
340 -735 608 -1183 736 -146 42 -185 50 -369 78 -89 14 -512 29 -522 19z m652
-175 c944 -197 1676 -905 1891 -1830 69 -294 83 -586 43 -892 -29 -225 -130
-544 -238 -755 l-35 -68 -1 725 0 726 -272 -1 c-150 0 -280 3 -288 6 -13 6
-15 95 -14 718 l0 711 -20 1 c-73 1 -471 -2 -473 -5 -2 -2 -3 -323 -3 -715 0
-667 -1 -711 -18 -712 -9 -1 -123 -2 -252 -3 l-235 -1 -3 -1328 c-1 -730 -5
-1327 -8 -1327 -3 0 -56 -9 -117 -19 -62 -11 -128 -21 -147 -23 l-35 -3 -1
597 c0 329 -4 601 -8 605 -12 12 -915 10 -919 -2 -1 -5 -2 -259 -2 -562 0
-304 0 -553 -1 -553 -11 0 -247 87 -292 108 l-59 27 1 483 c1 266 -2 489 -6
495 -10 16 -916 18 -921 2 -1 -5 -2 -54 -2 -107 1 -54 0 -98 -2 -98 -2 0 -35
48 -74 108 -134 203 -263 504 -317 737 -21 89 -25 111 -38 190 -3 22 -7 42 -9
45 -23 38 -23 631 -1 669 2 3 7 29 10 56 4 28 9 59 11 70 3 11 7 31 9 45 21
116 92 335 157 483 65 148 191 366 246 426 l22 25 0 -180 c-1 -98 0 -188 0
-199 1 -20 8 -20 457 -19 317 0 458 4 462 11 4 6 7 268 6 581 0 566 0 571 20
581 84 42 315 124 317 113 1 -4 3 -293 4 -642 2 -349 3 -637 4 -640 1 -3 209
-5 463 -5 l461 1 0 688 0 688 61 -5 c34 -3 108 -15 166 -27z"/>
<path d="M609 3260 c0 -20 -1 -1538 0 -1570 l1 -25 460 0 c402 0 460 2 461 15
4 59 3 1573 -1 1583 -4 10 -105 13 -462 13 -404 0 -458 -2 -459 -16z"/>
<path d="M1879 3265 c-1 -5 -2 -367 -3 -802 -1 -522 2 -793 9 -794 6 -1 214
-2 463 -3 295 -1 452 2 453 9 1 13 1 1566 0 1585 -1 13 -57 15 -461 16 -310 0
-460 -4 -461 -11z"/>
</g>
</svg>
